<svg xmlns="http://www.w3.org/2000/svg">
<symbol id="gift-box" viewBox="-17 0 483 483.02631">
<path d="m194.492188 109.507812c2.523437 0 4.902343-1.191406 6.410156-3.214843 1.511718-2.023438 1.980468-4.636719 1.261718-7.058594-5.734374-19.582031-15.644531-37.6875-29.054687-53.0625-10.804687-11.496094-26.886719-16.417969-42.273437-12.9375-2.125.8125-3.800782 2.492187-4.613282 4.617187-.441406 1.195313-.769531 2.429688-.976562 3.6875-.246094 1.492188-.378906 3-.402344 4.511719v.128907c.097656 12.757812 5.238281 24.960937 14.304688 33.941406 15.375 13.398437 33.46875 23.304687 53.039062 29.035156.75.222656 1.523438.34375 2.304688.351562zm-44-40.714843c-3.175782-3.179688-5.667969-6.980469-7.328126-11.160157v-.078124c-.351562-.886719-.65625-1.777344-.917968-2.632813-.136719-.464844-.234375-.902344-.351563-1.359375-.121093-.457031-.226562-.800781-.304687-1.199219-.082032-.402343-.097656-.5625-.152344-.847656-.234375-1.195313-.398438-2.402344-.488281-3.617187 7.890625.597656 15.300781 4.003906 20.894531 9.601562 7.953125 8.992188 14.363281 19.238281 18.96875 30.328125-11.101562-4.621094-21.363281-11.054687-30.359375-19.035156zm0 0"/><path d="m440.011719 115.027344h-123.488281c5.339843-3.648438 10.355468-7.753906 14.984374-12.265625 28.617188-28.703125 29.554688-72.222657 11.273438-90.503907s-61.785156-17.359374-90.519531 11.289063c-11.75 12.789063-21.296875 27.4375-28.25 43.351563-6.953125-15.925782-16.507813-30.582032-28.269531-43.375-28.703126-28.617188-72.21875-29.554688-90.503907-11.273438-18.289062 18.28125-17.34375 61.800781 11.277344 90.511719 4.632813 4.511719 9.648437 8.617187 14.984375 12.265625h-123.488281c-4.417969 0-8.0000002 3.582031-8.0000002 8v80c0 4.417968 3.5820312 8 8.0000002 8h16v232c.027343 22.078125 17.921875 39.972656 40 40h320c22.082031-.027344 39.976562-17.921875 40-40v-232h16c4.417969 0 8-3.582032 8-8v-80c0-4.417969-3.582031-8-8-8zm-176.429688-80.175782c22.992188-22.921874 56.527344-22.65625 67.894531-11.289062 11.367188 11.367188 11.640626 44.886719-11.28125 67.886719-10.496093 9.703125-22.480468 17.660156-35.496093 23.578125h-47.804688c0-.167969 0-.351563 0-.519532 0-1.824218-.136719-3.671874-.3125-5.53125-.066406-.613281-.136719-1.222656-.207031-1.847656-.183594-1.535156-.410156-3.066406-.683594-4.589844-.085937-.535156-.175781-1.074218-.269531-1.601562-.382813-1.992188-.800781-3.953125-1.28125-5.847656-.0625-.273438-.136719-.511719-.199219-.800782-.425781-1.65625-.863281-3.199218-1.3125-4.796874-.0625-.21875-.121094-.457032-.183594-.675782 6.554688-19.9375 17.15625-38.3125 31.136719-53.964844zm-7.570312 160.175782h-64v-64h64zm-128.175781-103.570313c-22.925782-23-22.65625-56.519531-11.285157-67.894531 11.367188-11.375 44.886719-11.640625 67.871094 11.265625 14.554687 16.304687 25.464844 35.53125 32 56.390625.902344 2.808594 1.597656 5.503906 2.253906 8.121094.183594.75.335938 1.476562.496094 2.214844.433594 1.953124.78125 3.816406 1.042969 5.601562.085937.605469.199218 1.230469.269531 1.820312.253906 1.996094.390625 4.007813.410156 6.019532h-57.570312c-13.007813-5.90625-24.988281-13.851563-35.488281-23.539063zm-111.824219 39.570313h160v64h-160zm24 312v-232h152v256h-128c-13.253907 0-24-10.746094-24-24zm168 24v-256h32v256zm200-24c0 13.253906-10.742188 24-24 24h-128v-256h152zm24-248h-160v-64h160zm0 0"/><path d="m253.507812 109.53125c.769532 0 1.535157-.109375 2.273438-.328125 19.59375-5.726563 37.707031-15.652344 53.078125-29.089844 11.382813-10.886719 16.289063-26.902343 12.960937-42.296875-.804687-2.117187-2.480468-3.789062-4.597656-4.597656-15.394531-3.328125-31.410156 1.578125-42.296875 12.960938-13.433593 15.371093-23.359375 33.484374-29.089843 53.078124-.714844 2.421876-.25 5.039063 1.261718 7.058594 1.511719 2.023438 3.886719 3.214844 6.410156 3.214844zm32.730469-52.039062c5.601563-5.59375 13.019531-8.996094 20.910157-9.601563-.597657 7.894531-4.003907 15.316406-9.597657 20.917969-9 8.007812-19.277343 14.453125-30.402343 19.074218 4.625-11.125 11.078124-21.394531 19.089843-30.390624zm0 0"/>
</symbol>
<symbol id="mail" viewBox="0 0 512 512">
		<path d="M467,76H45C20.137,76,0,96.262,0,121v270c0,24.885,20.285,45,45,45h422c24.655,0,45-20.03,45-45V121
			C512,96.306,491.943,76,467,76z M460.698,106c-9.194,9.145-167.415,166.533-172.878,171.967c-8.5,8.5-19.8,13.18-31.82,13.18
			s-23.32-4.681-31.848-13.208C220.478,274.284,64.003,118.634,51.302,106H460.698z M30,384.894V127.125L159.638,256.08L30,384.894z
			 M51.321,406l129.587-128.763l22.059,21.943c14.166,14.166,33,21.967,53.033,21.967c20.033,0,38.867-7.801,53.005-21.939
			l22.087-21.971L460.679,406H51.321z M482,384.894L352.362,256.08L482,127.125V384.894z"/>
</symbol>
<symbol id="phone" viewBox="0 0 512 512">
<path d="M497.39 361.8l-112-48a24 24 0 0 0-28 6.9l-49.6 60.6A370.66 370.66 0 0 1 130.6 204.11l60.6-49.6a23.94 23.94 0 0 0 6.9-28l-48-112A24.16 24.16 0 0 0 122.6.61l-104 24A24 24 0 0 0 0 48c0 256.5 207.9 464 464 464a24 24 0 0 0 23.4-18.6l24-104a24.29 24.29 0 0 0-14.01-27.6z"/>
</symbol>
<symbol id="search" viewBox="0 0 28.931 28.932">
<path d="M28.344,25.518l-6.114-6.115c1.486-2.067,2.303-4.537,2.303-7.137c0-3.275-1.275-6.355-3.594-8.672
		C18.625,1.278,15.543,0,12.266,0C8.99,0,5.909,1.275,3.593,3.594C1.277,5.909,0.001,8.99,0.001,12.266
		c0,3.276,1.275,6.356,3.592,8.674c2.316,2.316,5.396,3.594,8.673,3.594c2.599,0,5.067-0.813,7.136-2.303l6.114,6.115
		c0.392,0.391,0.902,0.586,1.414,0.586c0.513,0,1.024-0.195,1.414-0.586C29.125,27.564,29.125,26.299,28.344,25.518z M6.422,18.111
		c-1.562-1.562-2.421-3.639-2.421-5.846S4.86,7.983,6.422,6.421c1.561-1.562,3.636-2.422,5.844-2.422s4.284,0.86,5.845,2.422
		c1.562,1.562,2.422,3.638,2.422,5.845s-0.859,4.283-2.422,5.846c-1.562,1.562-3.636,2.42-5.845,2.42S7.981,19.672,6.422,18.111z"/>
</symbol>
<symbol id="logo" viewBox="0 0 380.721 380.721">
<path d="M190.372,29.813c-88.673,0-160.546,71.873-160.546,160.547c0,65.89,39.73,122.438,96.504,147.173l2.092-40.525
			c0-32.242-23.83-21.912-23.83-44.465c0-12.641,0.395-38.98,0.395-58.755c0-52.697,22.377-103.673,27.874-115.048
			c5.53-11.363,18.537-23.76,18.677-11.828c0,17.312,0.738,218.618,0.738,218.618h-0.035l2.463,61.241
			c11.497,2.626,23.395,4.125,35.669,4.125c6.728,0,13.304-0.546,19.822-1.349l5.31-102.906
			c-13.106-2.869-24.283-11.212-31.295-21.68c-8.685-13.014,6.675-128.067,6.675-128.067h10.004v107.978h9.922V96.894h10.84v107.978
			h9.889V96.894h11.258v107.978h9.911V96.894h7.668c0,0,15.349,115.054,6.669,128.067c-6.947,10.363-18.009,18.682-30.952,21.633
			c-0.232,0.07-0.441,0.163-0.441,0.163l5.02,95.993c63.995-21.11,110.249-81.307,110.249-152.39
			C350.907,101.687,279.034,29.813,190.372,29.813z"/>
		<path d="M190.372,0C85.415,0,0,85.397,0,190.36C0,295.3,85.415,380.721,190.372,380.721c104.952,0,190.35-85.421,190.35-190.361
			C380.721,85.397,295.324,0,190.372,0z M190.372,366.523c-97.144,0-176.18-79.03-176.18-176.163
			c0-97.144,79.036-176.18,176.18-176.18c97.133,0,176.175,79.036,176.175,176.18C366.546,287.493,287.504,366.523,190.372,366.523z
			"/>
</symbol>
<symbol id="provider" viewBox="0 0 480.088 480.088">
<path d="M456.952,207.082c17.286-13.756,20.148-38.921,6.392-56.207c-13.756-17.286-38.921-20.148-56.207-6.392
			c-17.286,13.756-20.148,38.921-6.392,56.207c1.882,2.365,4.027,4.51,6.392,6.392c-4.908,2.991-9.242,6.834-12.799,11.348
			l-39.211,39.211c-7.849-10.555-22.769-12.749-33.324-4.9c-2.372,1.764-4.395,3.954-5.965,6.458l-47.145-33.675l-0.041,0.058
			c-1.192-0.89-2.426-1.723-3.699-2.5c17.286-13.756,20.148-38.921,6.392-56.207c-13.756-17.286-38.921-20.148-56.207-6.392
			c-17.286,13.756-20.148,38.921-6.392,56.207c1.882,2.365,4.027,4.51,6.392,6.392c-1.274,0.778-2.507,1.611-3.699,2.5l-0.041-0.058
			l-47.145,33.675c-6.989-11.144-21.688-14.512-32.831-7.523c-2.504,1.57-4.694,3.593-6.458,5.965l-39.211-39.211
			c-3.557-4.514-7.891-8.357-12.799-11.348c17.286-13.756,20.148-38.921,6.392-56.207c-13.756-17.286-38.921-20.148-56.207-6.392
			C5.85,158.238,2.989,183.403,16.745,200.69c1.882,2.365,4.027,4.51,6.392,6.392c-14.319,8.684-23.072,24.207-23.093,40.954v72
			c-0.001,4.417,3.579,7.999,7.996,8c0.001,0,0.003,0,0.004,0h80c4.417,0.001,7.999-3.579,8-7.996c0-0.001,0-0.003,0-0.004v-68.688
			l24.373,24.373c1.995,13.063,14.202,22.036,27.265,20.041c10.066-1.537,18.056-9.276,19.913-19.288l24.749-17.677
			c-0.195,1.74-0.295,3.489-0.3,5.239v72c-0.001,4.417,3.579,7.999,7.996,8c0.001,0,0.003,0,0.004,0h80
			c4.417,0.001,7.999-3.579,8-7.996c0-0.001,0-0.003,0-0.004v-72c-0.005-1.751-0.105-3.5-0.3-5.239l24.749,17.677
			c2.411,12.993,14.898,21.571,27.891,19.16c10.011-1.858,17.75-9.848,19.288-19.913l24.373-24.373v68.688
			c-0.001,4.417,3.579,7.999,7.996,8c0.001,0,0.003,0,0.004,0h80c4.417,0.001,7.999-3.579,8-7.996c0-0.001,0-0.003,0-0.004v-72
			C480.023,231.289,471.27,215.766,456.952,207.082z M48.044,152.036c13.255,0,24,10.745,24,24s-10.745,24-24,24s-24-10.745-24-24
			C24.058,162.787,34.795,152.05,48.044,152.036z M80.044,312.036h-64v-64c0-17.673,14.327-32,32-32s32,14.327,32,32V312.036z
			 M144.044,280.036c-4.418,0-8-3.582-8-8s3.582-8,8-8s8,3.582,8,8C152.04,276.452,148.46,280.031,144.044,280.036z
			 M240.044,168.036c13.255,0,24,10.745,24,24s-10.745,24-24,24s-24-10.745-24-24C216.058,178.787,226.795,168.05,240.044,168.036z
			 M272.044,328.036h-64v-64c0-17.673,14.327-32,32-32c17.673,0,32,14.327,32,32V328.036z M336.044,280.036c-4.418,0-8-3.582-8-8
			s3.582-8,8-8s8,3.582,8,8C344.04,276.452,340.46,280.031,336.044,280.036z M432.044,152.036c13.255,0,24,10.745,24,24
			s-10.745,24-24,24s-24-10.745-24-24C408.058,162.787,418.795,152.05,432.044,152.036z M464.044,312.036h-64v-64
			c0-17.673,14.327-32,32-32c17.673,0,32,14.327,32,32V312.036z"/>
		<path d="M274.954,63.063c-9.374-9.372-24.57-9.37-33.941,0.004c-9.372-9.372-24.566-9.372-33.937,0
			c-9.372,9.372-9.372,24.566,0,33.937l28.281,28.285c3.122,3.124,8.186,3.125,11.31,0.003c0.001-0.001,0.002-0.002,0.003-0.003
			l28.289-28.285C284.33,87.631,284.328,72.434,274.954,63.063z M263.646,85.692l-22.633,22.629l-22.625-22.633
			c-3.097-3.149-3.055-8.213,0.094-11.31c3.113-3.062,8.106-3.061,11.218,0.002l5.656,5.656c3.122,3.124,8.186,3.125,11.31,0.003
			c0.001-0.001,0.002-0.002,0.003-0.003l5.656-5.656c3.131-3.114,8.19-3.114,11.321,0C266.763,77.506,266.763,82.565,263.646,85.692
			z"/>
		<path d="M473.263,7.207l-0.008-0.004c-9.137-9.148-23.925-9.27-33.211-0.273c-9.289-8.999-24.081-8.876-33.219,0.277
			c-8.994,9.508-8.99,24.387,0.008,33.891l27.453,28.488c3.062,3.18,8.121,3.276,11.301,0.214c0.073-0.07,0.144-0.142,0.214-0.214
			l27.453-28.488C482.254,31.594,482.257,16.715,473.263,7.207z M461.739,29.996l-21.695,22.512l-21.695-22.512
			c-3.102-3.28-3.102-8.411,0-11.691c2.692-2.884,7.213-3.04,10.097-0.348c0.12,0.112,0.236,0.228,0.348,0.348l5.492,5.699
			c3.199,3.133,8.316,3.133,11.516,0l5.492-5.699c2.82-2.883,7.444-2.934,10.327-0.114c0.037,0.036,0.074,0.073,0.11,0.11
			C464.839,21.579,464.843,26.714,461.739,29.996z"/>
		<path d="M73.263,7.208l-0.008-0.004C64.118-1.944,49.33-2.066,40.044,6.93C30.755-2.069,15.963-1.946,6.825,7.207
			c-8.994,9.508-8.99,24.387,0.008,33.891l27.453,28.488c3.062,3.18,8.121,3.276,11.301,0.214c0.073-0.07,0.144-0.142,0.214-0.214
			l27.453-28.488C82.253,31.595,82.257,16.716,73.263,7.208z M61.739,29.996L40.044,52.508L18.349,29.996
			c-3.185-3.297-3.253-8.46,0-11.691c2.692-2.884,7.213-3.04,10.097-0.348c0.12,0.112,0.236,0.228,0.348,0.348l5.492,5.699
			c3.199,3.133,8.316,3.133,11.516,0l5.492-5.699c2.82-2.883,7.444-2.934,10.327-0.114c0.037,0.036,0.074,0.073,0.11,0.11
			C64.839,21.579,64.843,26.714,61.739,29.996z"/>
</symbol>
<symbol id="shopping-cart" viewBox="0 0 511.728 511.728">
	<path d="m147.925 379.116c-22.357-1.142-21.936-32.588-.001-33.68 62.135.216 226.021.058 290.132.103 17.535 0 32.537-11.933 36.481-29.017l36.404-157.641c2.085-9.026-.019-18.368-5.771-25.629s-14.363-11.484-23.626-11.484c-25.791 0-244.716-.991-356.849-1.438l-17.775-65.953c-4.267-15.761-18.65-26.768-34.978-26.768h-56.942c-8.284 0-15 6.716-15 15s6.716 15 15 15h56.942c2.811 0 5.286 1.895 6.017 4.592l68.265 253.276c-12.003.436-23.183 5.318-31.661 13.92-8.908 9.04-13.692 21.006-13.471 33.695.442 25.377 21.451 46.023 46.833 46.023h21.872c-3.251 6.824-5.076 14.453-5.076 22.501 0 28.95 23.552 52.502 52.502 52.502s52.502-23.552 52.502-52.502c0-8.049-1.826-15.677-5.077-22.501h94.716c-3.248 6.822-5.073 14.447-5.073 22.493 0 28.95 23.553 52.502 52.502 52.502 28.95 0 52.503-23.553 52.503-52.502 0-8.359-1.974-16.263-5.464-23.285 5.936-1.999 10.216-7.598 10.216-14.207 0-8.284-6.716-15-15-15zm91.799 52.501c0 12.408-10.094 22.502-22.502 22.502s-22.502-10.094-22.502-22.502c0-12.401 10.084-22.491 22.483-22.501h.038c12.399.01 22.483 10.1 22.483 22.501zm167.07 22.494c-12.407 0-22.502-10.095-22.502-22.502 0-12.285 9.898-22.296 22.137-22.493h.731c12.24.197 22.138 10.208 22.138 22.493-.001 12.407-10.096 22.502-22.504 22.502zm74.86-302.233c.089.112.076.165.057.251l-15.339 66.425h-51.942l8.845-67.023 58.149.234c.089.002.142.002.23.113zm-154.645 163.66v-66.984h53.202l-8.84 66.984zm-74.382 0-8.912-66.984h53.294v66.984zm-69.053 0h-.047c-3.656-.001-6.877-2.467-7.828-5.98l-16.442-61.004h54.193l8.912 66.984zm56.149-96.983-9.021-67.799 66.306.267v67.532zm87.286 0v-67.411l66.022.266-8.861 67.145zm-126.588-67.922 9.037 67.921h-58.287l-18.38-68.194zm237.635 164.905h-36.426l8.84-66.984h48.973l-14.137 61.217c-.784 3.396-3.765 5.767-7.25 5.767z"/>
</symbol>
<symbol id="telegram" viewBox="0 0 496 512">
<path d="M248 8C111 8 0 119 0 256s111 248 248 248 248-111 248-248S385 8 248 8zm121.8 169.9l-40.7 191.8c-3 13.6-11.1 16.9-22.4 10.5l-62-45.7-29.9 28.8c-3.3 3.3-6.1 6.1-12.5 6.1l4.4-63.1 114.9-103.8c5-4.4-1.1-6.9-7.7-2.5l-142 89.4-61.2-19.1c-13.3-4.2-13.6-13.3 2.8-19.7l239.1-92.2c11.1-4 20.8 2.7 17.2 19.5z"></path>
</symbol>
<symbol id="viber" viewBox="0 0 512 512">
<path d="M444 49.9C431.3 38.2 379.9.9 265.3.4c0 0-135.1-8.1-200.9 52.3C27.8 89.3 14.9 143 13.5 209.5c-1.4 66.5-3.1 191.1 117 224.9h.1l-.1 51.6s-.8 20.9 13 25.1c16.6 5.2 26.4-10.7 42.3-27.8 8.7-9.4 20.7-23.2 29.8-33.7 82.2 6.9 145.3-8.9 152.5-11.2 16.6-5.4 110.5-17.4 125.7-142 15.8-128.6-7.6-209.8-49.8-246.5zM457.9 287c-12.9 104-89 110.6-103 115.1-6 1.9-61.5 15.7-131.2 11.2 0 0-52 62.7-68.2 79-5.3 5.3-11.1 4.8-11-5.7 0-6.9.4-85.7.4-85.7-.1 0-.1 0 0 0-101.8-28.2-95.8-134.3-94.7-189.8 1.1-55.5 11.6-101 42.6-131.6 55.7-50.5 170.4-43 170.4-43 96.9.4 143.3 29.6 154.1 39.4 35.7 30.6 53.9 103.8 40.6 211.1zm-139-80.8c.4 8.6-12.5 9.2-12.9.6-1.1-22-11.4-32.7-32.6-33.9-8.6-.5-7.8-13.4.7-12.9 27.9 1.5 43.4 17.5 44.8 46.2zm20.3 11.3c1-42.4-25.5-75.6-75.8-79.3-8.5-.6-7.6-13.5.9-12.9 58 4.2 88.9 44.1 87.8 92.5-.1 8.6-13.1 8.2-12.9-.3zm47 13.4c.1 8.6-12.9 8.7-12.9.1-.6-81.5-54.9-125.9-120.8-126.4-8.5-.1-8.5-12.9 0-12.9 73.7.5 133 51.4 133.7 139.2zM374.9 329v.2c-10.8 19-31 40-51.8 33.3l-.2-.3c-21.1-5.9-70.8-31.5-102.2-56.5-16.2-12.8-31-27.9-42.4-42.4-10.3-12.9-20.7-28.2-30.8-46.6-21.3-38.5-26-55.7-26-55.7-6.7-20.8 14.2-41 33.3-51.8h.2c9.2-4.8 18-3.2 23.9 3.9 0 0 12.4 14.8 17.7 22.1 5 6.8 11.7 17.7 15.2 23.8 6.1 10.9 2.3 22-3.7 26.6l-12 9.6c-6.1 4.9-5.3 14-5.3 14s17.8 67.3 84.3 84.3c0 0 9.1.8 14-5.3l9.6-12c4.6-6 15.7-9.8 26.6-3.7 14.7 8.3 33.4 21.2 45.8 32.9 7 5.7 8.6 14.4 3.8 23.6z"></path>
</symbol>
<symbol id="whatsup" viewBox="0 0 448 512">
<path d="M380.9 97.1C339 55.1 283.2 32 223.9 32c-122.4 0-222 99.6-222 222 0 39.1 10.2 77.3 29.6 111L0 480l117.7-30.9c32.4 17.7 68.9 27 106.1 27h.1c122.3 0 224.1-99.6 224.1-222 0-59.3-25.2-115-67.1-157zm-157 341.6c-33.2 0-65.7-8.9-94-25.7l-6.7-4-69.8 18.3L72 359.2l-4.4-7c-18.5-29.4-28.2-63.3-28.2-98.2 0-101.7 82.8-184.5 184.6-184.5 49.3 0 95.6 19.2 130.4 54.1 34.8 34.9 56.2 81.2 56.1 130.5 0 101.8-84.9 184.6-186.6 184.6zm101.2-138.2c-5.5-2.8-32.8-16.2-37.9-18-5.1-1.9-8.8-2.8-12.5 2.8-3.7 5.6-14.3 18-17.6 21.8-3.2 3.7-6.5 4.2-12 1.4-32.6-16.3-54-29.1-75.5-66-5.7-9.8 5.7-9.1 16.3-30.3 1.8-3.7.9-6.9-.5-9.7-1.4-2.8-12.5-30.1-17.1-41.2-4.5-10.8-9.1-9.3-12.5-9.5-3.2-.2-6.9-.2-10.6-.2-3.7 0-9.7 1.4-14.8 6.9-5.1 5.6-19.4 19-19.4 46.3 0 27.3 19.9 53.7 22.6 57.4 2.8 3.7 39.1 59.7 94.8 83.8 35.2 15.2 49 16.5 66.6 13.9 10.7-1.6 32.8-13.4 37.4-26.4 4.6-13 4.6-24.1 3.2-26.4-1.3-2.5-5-3.9-10.5-6.6z"></path>
</symbol>
<symbol viewBox="0 0 320 512" id="arrow"> 
<path d="M285.476 272.971L91.132 467.314c-9.373 9.373-24.569 9.373-33.941 0l-22.667-22.667c-9.357-9.357-9.375-24.522-.04-33.901L188.505 256 34.484 101.255c-9.335-9.379-9.317-24.544.04-33.901l22.667-22.667c9.373-9.373 24.569-9.373 33.941 0L285.475 239.03c9.373 9.372 9.373 24.568.001 33.941z"></path>
</symbol>
</svg>